<svg id="Icons" height="512" viewBox="0 0 74 74" width="512" xmlns="http://www.w3.org/2000/svg">
    <path d="m61 72.01h-48.02a1 1 0 0 1 -1-1v-68a1 1 0 0 1 1-1h48.02a1 1 0 0 1 1 1v7.55a1 1 0 1 1 -2 0v-6.55h-46.02v66h46.02v-42.55a1 1 0 0 1 2 0v43.55a1 1 0 0 1 -1 1z"/>
    <path d="m61 21.46a1 1 0 0 1 -1-1v-2.9a1 1 0 0 1 2 0v2.9a1 1 0 0 1 -1 1z"/>
    <path d="m50 12h-26.016a1 1 0 0 1 -1-1v-7.992a1 1 0 0 1 1-1h26.016a1 1 0 0 1 1 1v7.992a1 1 0 0 1 -1 1zm-25.016-2h24.016v-5.992h-24.016z"/>
    <path d="m36.992 18.208a7.216 7.216 0 0 1 -7.208-7.208 1 1 0 0 1 2 0 5.208 5.208 0 0 0 10.416 0 1 1 0 0 1 2 0 7.216 7.216 0 0 1 -7.208 7.208z"/>
    <path d="m50 71.992h-26.016a1 1 0 0 1 -1-1v-7.992a1 1 0 0 1 1-1h26.016a1 1 0 0 1 1 1v7.992a1 1 0 0 1 -1 1zm-25.016-2h24.016v-5.992h-24.016z"/>
    <path d="m43.2 64a1 1 0 0 1 -1-1 5.208 5.208 0 0 0 -10.416 0 1 1 0 0 1 -2 0 7.208 7.208 0 0 1 14.416 0 1 1 0 0 1 -1 1z"/>
    <path d="m61 38.01h-48.02a1 1 0 1 1 0-2h48.02a1 1 0 0 1 0 2z"/>
    <path d="m36.99 48.02a11.01 11.01 0 1 1 11.01-11.01 11.022 11.022 0 0 1 -11.01 11.01zm0-20.02a9.01 9.01 0 1 0 9.01 9.01 9.02 9.02 0 0 0 -9.01-9.01z"/>
</svg>
