<svg height="472pt" viewBox="-57 0 471 472" width="472pt" xmlns="http://www.w3.org/2000/svg"><path d="m356.5 8c0-4.417969-3.582031-8-8-8h-340c-4.417969 0-8 3.582031-8 8v456c0 4.417969 3.582031 8 8 8h340c4.417969 0 8-3.582031 8-8zm-16 220h-30v-212h30zm-46-99h-232v-113h232zm-232 16h107v83h-107zm107 99v83h-107v-83zm-107 99h112.078125c.90625 1 1.890625.558594 2.921875.558594s2.015625.441406 2.921875-.558594h114.078125v113h-232zm232-16h-109v-83h109zm-109-99v-83h109v83zm-139-212v212h-30v-212zm-30 228h30v212h-30zm294 212v-212h30v212zm0 0"/></svg>